<svg width="10" height="6" viewBox="0 0 10 6" fill="none" xmlns="http://www.w3.org/2000/svg">
<path d="M5.52317 0.216795C5.48627 0.18983 5.44713 0.166076 5.40617 0.145795C5.36285 0.111958 5.31629 0.0824814 5.26717 0.057795C5.21638 0.0417162 5.16413 0.0306632 5.11117 0.024795C5.01014 -0.00826501 4.9012 -0.00826501 4.80017 0.024795C4.74722 0.0306632 4.69497 0.0417162 4.64417 0.057795C4.59505 0.0824814 4.5485 0.111958 4.50517 0.145795C4.46418 0.166396 4.42503 0.190485 4.38817 0.217795L0.218172 4.61779C0.144947 4.69684 0.0880405 4.78956 0.0507131 4.89064C0.0133857 4.99172 -0.0036289 5.09917 0.000644334 5.20684C0.00491757 5.31451 0.0303946 5.42027 0.0756155 5.51808C0.120836 5.61588 0.184912 5.7038 0.264172 5.77679C0.425015 5.92543 0.637547 6.00537 0.856474 5.99958C1.0754 5.99379 1.28341 5.90272 1.43617 5.74579L5.00017 1.9888L8.56417 5.74579C8.71693 5.90272 8.92494 5.99379 9.14387 5.99958C9.3628 6.00537 9.57533 5.92543 9.73617 5.77679C9.81543 5.7038 9.87951 5.61588 9.92473 5.51808C9.96995 5.42027 9.99543 5.31451 9.9997 5.20684C10.004 5.09917 9.98696 4.99172 9.94963 4.89064C9.9123 4.78956 9.8554 4.69684 9.78217 4.61779L5.52317 0.216795Z" fill="#959DB3"/>
</svg>
