<svg width="8" height="13" viewBox="0 0 8 13" fill="none" xmlns="http://www.w3.org/2000/svg">
<path opacity="0.4" d="M0.278986 5.68234C0.244299 5.72765 0.213522 5.77582 0.186986 5.82634C0.143543 5.88145 0.10569 5.94074 0.0739864 6.00334C0.0533394 6.06844 0.039269 6.13544 0.0319864 6.20334C-0.0104994 6.33158 -0.0104994 6.4701 0.0319864 6.59834C0.039269 6.66624 0.0533394 6.73324 0.0739864 6.79834C0.105748 6.8606 0.143599 6.91955 0.186986 6.97434C0.213323 7.02624 0.244105 7.07576 0.278986 7.12234L5.91999 12.4053C6.12661 12.5856 6.39514 12.6785 6.66897 12.6647C6.9428 12.6508 7.20055 12.5311 7.3879 12.331C7.57525 12.1308 7.67757 11.8657 7.6733 11.5915C7.66902 11.3174 7.55849 11.0556 7.36499 10.8613L2.54899 6.34134L7.36499 1.82134C7.55849 1.62709 7.66902 1.36531 7.6733 1.09116C7.67757 0.817012 7.57525 0.551911 7.3879 0.351724C7.20055 0.151536 6.9428 0.0318985 6.66897 0.0180225C6.39514 0.00414658 6.12661 0.0971174 5.91999 0.277341L0.278986 5.68234Z" fill="#959DB3"/>
</svg>
