<svg width="10" height="6" viewBox="0 0 10 6" fill="none" xmlns="http://www.w3.org/2000/svg">
<path d="M4.47744 5.78308C4.51434 5.81005 4.55348 5.8338 4.59444 5.85408C4.63776 5.88792 4.68432 5.9174 4.73344 5.94208C4.78423 5.95816 4.83648 5.96921 4.88944 5.97508C4.99047 6.00814 5.09941 6.00814 5.20044 5.97508C5.25339 5.96921 5.30564 5.95816 5.35644 5.94208C5.40556 5.9174 5.45212 5.88792 5.49544 5.85408C5.53643 5.83348 5.57558 5.80939 5.61244 5.78208L9.78244 1.38208C9.85566 1.30303 9.91257 1.21031 9.9499 1.10923C9.98722 1.00816 10.0042 0.900703 9.99997 0.793036C9.99569 0.685369 9.97022 0.579604 9.92499 0.481801C9.87977 0.383998 9.8157 0.296079 9.73644 0.223083C9.5756 0.0744495 9.36306 -0.0054903 9.14414 0.000300407C8.92521 0.00609112 8.7172 0.0971546 8.56444 0.254083L5.00044 4.01108L1.43644 0.254083C1.28368 0.0971546 1.07567 0.00609112 0.856741 0.000300407C0.637814 -0.0054903 0.425282 0.0744495 0.264439 0.223083C0.18518 0.296079 0.121104 0.383998 0.0758829 0.481801C0.0306616 0.579604 0.00518513 0.685369 0.000911713 0.793036C-0.0033617 0.900703 0.0136528 1.00816 0.0509806 1.10923C0.0883083 1.21031 0.145214 1.30303 0.218439 1.38208L4.47744 5.78308Z" fill="#959DB3"/>
</svg>
