<svg width="13" height="8" viewBox="0 0 13 8" fill="none" xmlns="http://www.w3.org/2000/svg">
<path d="M5.66574 7.39448C5.71105 7.42916 5.75922 7.45994 5.80974 7.48648C5.86485 7.52992 5.92414 7.56777 5.98674 7.59948C6.05184 7.62012 6.11884 7.63419 6.18674 7.64148C6.31498 7.68396 6.4535 7.68396 6.58174 7.64148C6.64964 7.63419 6.71664 7.62012 6.78174 7.59948C6.84399 7.56771 6.90295 7.52986 6.95774 7.48648C7.00964 7.46014 7.05915 7.42936 7.10574 7.39448L12.3887 1.75348C12.569 1.54685 12.6619 1.27833 12.6481 1.00449C12.6342 0.730664 12.5145 0.472914 12.3144 0.285563C12.1142 0.0982118 11.8491 -0.00410843 11.5749 0.000165939C11.3008 0.00444031 11.039 0.114975 10.8447 0.308476L6.32474 5.12448L1.80474 0.308476C1.61049 0.114975 1.34871 0.00444031 1.07456 0.000165939C0.80041 -0.00410843 0.53531 0.0982118 0.335122 0.285563C0.134934 0.472914 0.0152969 0.730664 0.00142097 1.00449C-0.012455 1.27833 0.0805159 1.54685 0.260739 1.75348L5.66574 7.39448Z" fill="white"/>
</svg>
