<svg width="8" height="13" viewBox="0 0 8 13" fill="none" xmlns="http://www.w3.org/2000/svg">
<path d="M7.41096 7.00028C7.44564 6.95497 7.47642 6.90679 7.50296 6.85628C7.5464 6.80117 7.58425 6.74188 7.61596 6.67928C7.6366 6.61418 7.65067 6.54718 7.65796 6.47928C7.70044 6.35104 7.70044 6.21252 7.65796 6.08428C7.65067 6.01637 7.6366 5.94937 7.61596 5.88428C7.58419 5.82202 7.54634 5.76307 7.50296 5.70828C7.47662 5.65638 7.44584 5.60686 7.41096 5.56028L1.76996 0.277276C1.56333 0.097053 1.2948 0.00408283 1.02097 0.0179585C0.747144 0.0318341 0.489394 0.151472 0.302042 0.351659C0.114691 0.551846 0.0123711 0.816948 0.0166454 1.0911C0.0209198 1.36524 0.131454 1.62703 0.324955 1.82128L5.14095 6.34128L0.324955 10.8613C0.131454 11.0555 0.0209198 11.3173 0.0166454 11.5915C0.0123711 11.8656 0.114691 12.1307 0.302042 12.3309C0.489394 12.5311 0.747144 12.6507 1.02097 12.6646C1.2948 12.6785 1.56333 12.5855 1.76996 12.4053L7.41096 7.00028Z" fill="#959DB3"/>
</svg>
