<svg width="8" height="8" viewBox="0 0 8 8" fill="none" xmlns="http://www.w3.org/2000/svg">
<path d="M7.12712 7.86009L3.99963 4.73253L0.872148 7.86009C0.77496 7.95262 0.64503 8.00281 0.510883 7.99962C0.376735 7.99644 0.24932 7.94016 0.156636 7.84313C0.0596033 7.75044 0.00333032 7.62302 0.000143033 7.48887C-0.00304425 7.35472 0.0471469 7.22479 0.139669 7.1276L3.26715 4.00004L0.139669 0.872474C0.0938272 0.824349 0.0578869 0.767668 0.0339563 0.705661C0.0100257 0.643655 -0.00142103 0.577522 0.000204068 0.511078C0.00182916 0.444633 0.0165445 0.37921 0.0434778 0.318447C0.070411 0.257684 0.109046 0.202771 0.157186 0.156945C0.203044 0.108838 0.257905 0.0702467 0.318684 0.0433563C0.379463 0.0164659 0.444928 0.00184338 0.511371 0.000264689C0.577814 -0.00131401 0.643962 0.0102275 0.70595 0.0342009C0.767937 0.0581743 0.824545 0.0941024 0.872636 0.139977L4.00012 3.26754L7.12761 0.139977C7.2248 0.0474528 7.35473 -0.00273957 7.48887 0.000447798C7.62302 0.00363516 7.75044 0.0599095 7.84312 0.156945C7.94015 0.249631 7.99643 0.377049 7.99961 0.5112C8.0028 0.64535 7.95267 0.775284 7.86015 0.872474L4.73266 4.00004L7.86015 7.1276C7.90602 7.17569 7.94195 7.23236 7.96592 7.29435C7.98989 7.35634 8.00144 7.42243 7.99986 7.48887C7.99828 7.55532 7.98359 7.62078 7.95671 7.68156C7.92982 7.74234 7.89122 7.79727 7.84312 7.84313C7.79427 7.8926 7.73613 7.93191 7.67204 7.95885C7.60794 7.98579 7.53917 7.99982 7.46965 8.00011C7.40614 8.00054 7.34319 7.98837 7.28441 7.96434C7.22562 7.94031 7.17214 7.90488 7.12712 7.86009Z" fill="#959DB3"/>
</svg>
