<svg width="16" height="17" viewBox="0 0 16 17" fill="none" xmlns="http://www.w3.org/2000/svg">
<path d="M12.509 16.9964H2.124C1.81581 16.9935 1.52135 16.8685 1.3052 16.6488C1.08905 16.4291 0.968868 16.1326 0.971 15.8244V3.71245H0.586C0.430583 3.71245 0.281532 3.65071 0.171635 3.54081C0.0617391 3.43092 0 3.28186 0 3.12645C0 2.97103 0.0617391 2.82198 0.171635 2.71208C0.281532 2.60219 0.430583 2.54045 0.586 2.54045H3.886C4.16193 1.79546 4.6583 1.15223 5.309 0.696448C5.95309 0.243233 6.72144 0 7.509 0C8.29656 0 9.06491 0.243233 9.709 0.696448C10.3593 1.15301 10.855 1.79696 11.13 2.54245H14.43C14.5854 2.54245 14.7345 2.60419 14.8444 2.71408C14.9543 2.82398 15.016 2.97303 15.016 3.12845C15.016 3.28386 14.9543 3.43292 14.8444 3.54281C14.7345 3.65271 14.5854 3.71445 14.43 3.71445H13.66V15.8244C13.6621 16.1323 13.5422 16.4285 13.3265 16.6481C13.1108 16.8678 12.8168 16.993 12.509 16.9964ZM10.394 8.59645C10.5482 8.59777 10.6955 8.66022 10.8037 8.77009C10.9119 8.87996 10.9721 9.02826 10.971 9.18245V15.8244H12.509V3.71245H2.124V15.8244H3.663V9.18245C3.663 9.10668 3.67792 9.03164 3.70692 8.96164C3.73592 8.89163 3.77842 8.82803 3.832 8.77445C3.88558 8.72087 3.94919 8.67837 4.01919 8.64937C4.0892 8.62037 4.16423 8.60545 4.24 8.60545C4.31577 8.60545 4.3908 8.62037 4.46081 8.64937C4.53081 8.67837 4.59442 8.72087 4.648 8.77445C4.70158 8.82803 4.74408 8.89163 4.77308 8.96164C4.80208 9.03164 4.817 9.10668 4.817 9.18245V15.8244H6.74V6.83745C6.74 6.68442 6.80079 6.53766 6.909 6.42945C7.01721 6.32124 7.16397 6.26045 7.317 6.26045C7.47003 6.26045 7.61679 6.32124 7.725 6.42945C7.83321 6.53766 7.894 6.68442 7.894 6.83745V15.8234H9.817V9.18245C9.81593 9.02826 9.8761 8.87996 9.98428 8.77009C10.0925 8.66022 10.2398 8.59777 10.394 8.59645ZM7.509 1.17245C7.01569 1.12821 6.52061 1.23545 6.08983 1.47988C5.65905 1.7243 5.31305 2.09428 5.098 2.54045H9.92C9.70098 2.09749 9.35418 1.73037 8.9244 1.48652C8.49462 1.24266 8.00159 1.13326 7.509 1.17245Z" fill="#FF0000"/>
</svg>
