<svg width="18" height="18" viewBox="0 0 18 18" fill="none" xmlns="http://www.w3.org/2000/svg">
<path d="M14.7449 4.521H11.9179V6.20799H14.7449C15.5809 6.20799 16.2449 6.62999 16.2449 7.01699V14.504C16.2449 14.891 15.5829 15.313 14.7449 15.313H4.11495C3.27895 15.313 2.61495 14.891 2.61495 14.504V7.021C2.61495 6.634 3.27695 6.212 4.11495 6.212H6.93695V4.521H4.11495C2.33795 4.521 0.944946 5.611 0.944946 7.021V14.508C0.944946 15.914 2.33795 17.008 4.11495 17.008H14.7749C16.5519 17.008 17.9449 15.918 17.9449 14.508V7.021C17.9099 5.615 16.5169 4.521 14.7449 4.521Z" fill="#959DB3"/>
<path d="M12.011 9.11997C11.8996 9.1182 11.7889 9.1391 11.6858 9.18138C11.5826 9.22367 11.4892 9.28647 11.411 9.36597L10.356 10.421L10.356 1.84397C10.3599 1.73076 10.341 1.61792 10.3003 1.51218C10.2597 1.40643 10.1982 1.30995 10.1195 1.22849C10.0408 1.14702 9.94648 1.08223 9.8422 1.03798C9.73791 0.993728 9.62579 0.970923 9.51251 0.970923C9.39923 0.970923 9.28711 0.993728 9.18283 1.03798C9.07855 1.08223 8.98424 1.14702 8.90553 1.22849C8.82682 1.30995 8.76532 1.40643 8.72468 1.51218C8.68405 1.61792 8.66512 1.73076 8.66901 1.84397L8.66901 10.491L7.54401 9.36597C7.38482 9.20696 7.16902 9.11764 6.94401 9.11764C6.71901 9.11764 6.5032 9.20696 6.34401 9.36597C6.19017 9.52786 6.10439 9.74265 6.10439 9.96597C6.10439 10.1893 6.19017 10.4041 6.34401 10.566L8.88301 13.092C8.96115 13.1715 9.05462 13.2343 9.15776 13.2766C9.2609 13.3188 9.37156 13.3397 9.48301 13.338C9.59447 13.3397 9.70512 13.3188 9.80826 13.2766C9.9114 13.2343 10.0049 13.1715 10.083 13.092L12.609 10.561C12.7629 10.3991 12.8486 10.1843 12.8486 9.96097C12.8486 9.73765 12.7629 9.52286 12.609 9.36097C12.4495 9.20272 12.2337 9.11424 12.009 9.11497L12.011 9.11997Z" fill="#959DB3"/>
</svg>
