<svg width="18" height="16" viewBox="0 0 18 16" fill="none" xmlns="http://www.w3.org/2000/svg">
<path d="M8.98584 16.0002C6.86411 16.0002 4.82928 15.1574 3.32899 13.6571C1.82869 12.1568 0.98584 10.122 0.98584 8.00022C0.98584 5.87849 1.82869 3.84366 3.32899 2.34337C4.82928 0.843078 6.86411 0.000222921 8.98584 0.000222921C10.482 -0.0110479 11.9503 0.405283 13.2178 1.20022L12.4478 2.43622C11.4107 1.78537 10.2092 1.44432 8.98484 1.45322C7.69002 1.45124 6.42371 1.83337 5.34612 2.55125C4.26853 3.26913 3.42808 4.29051 2.93112 5.48616C2.43415 6.68181 2.30299 7.998 2.55424 9.26821C2.80549 10.5384 3.42785 11.7056 4.34258 12.622C5.25732 13.5384 6.42332 14.1629 7.69307 14.4165C8.96281 14.6701 10.2792 14.5413 11.4758 14.0465C12.6724 13.5518 13.6953 12.7132 14.4151 11.6369C15.135 10.5606 15.5194 9.29504 15.5198 8.00022C15.5221 7.42261 15.4549 6.84682 15.3198 6.28522L16.7278 5.93322C16.8918 6.60993 16.9738 7.30393 16.9718 8.00022C16.9718 10.1195 16.1309 12.1522 14.6336 13.6521C13.1364 15.152 11.1051 15.9965 8.98584 16.0002Z" fill="#008000"/>
<path d="M8.97081 10.1813C8.77801 10.1812 8.59313 10.1046 8.45681 9.96827L5.03381 6.54527L6.06181 5.51727L8.97081 8.42627L16.9708 0.42627L17.9988 1.45427L9.48481 9.96827C9.3485 10.1046 9.16361 10.1812 8.97081 10.1813Z" fill="#008000"/>
</svg>
