<svg width="23" height="25" viewBox="0 0 23 25" fill="none" xmlns="http://www.w3.org/2000/svg">
<g filter="url(#filter0_d_1574_1689)">
<path d="M15.053 0.000427529H5.579C5.37316 -0.00432931 5.16841 0.0306498 4.97684 0.103301C4.78526 0.175953 4.61074 0.284805 4.46357 0.423437C4.3164 0.562069 4.19956 0.727672 4.11994 0.910478C4.04033 1.09328 3.99954 1.28959 4 1.48781V11.9033H5.579V1.48781H15.053V0.000427529ZM17.421 2.97616H8.737C8.53116 2.9714 8.32641 3.00638 8.13484 3.07903C7.94326 3.15168 7.76874 3.26054 7.62157 3.39917C7.4744 3.5378 7.35756 3.7034 7.27794 3.88621C7.19833 4.06901 7.15754 4.26532 7.158 4.46354V14.8791C7.15754 15.0773 7.19833 15.2736 7.27794 15.4564C7.35756 15.6392 7.4744 15.8048 7.62157 15.9435C7.76874 16.0821 7.94326 16.1909 8.13484 16.2636C8.32641 16.3362 8.53116 16.3712 8.737 16.3665H17.421C17.6268 16.3712 17.8316 16.3362 18.0232 16.2636C18.2147 16.1909 18.3893 16.0821 18.5364 15.9435C18.6836 15.8048 18.8004 15.6392 18.8801 15.4564C18.9597 15.2736 19.0005 15.0773 19 14.8791V4.46354C19.0005 4.26532 18.9597 4.06901 18.8801 3.88621C18.8004 3.7034 18.6836 3.5378 18.5364 3.39917C18.3893 3.26054 18.2147 3.15168 18.0232 3.07903C17.8316 3.00638 17.6268 2.9714 17.421 2.97616ZM17.421 14.8791H8.737V4.46354H17.421V14.8791Z" fill="white"/>
</g>
<defs>
<filter id="filter0_d_1574_1689" x="0" y="0" width="23" height="24.3667" filterUnits="userSpaceOnUse" color-interpolation-filters="sRGB">
<feFlood flood-opacity="0" result="BackgroundImageFix"/>
<feColorMatrix in="SourceAlpha" type="matrix" values="0 0 0 0 0 0 0 0 0 0 0 0 0 0 0 0 0 0 127 0" result="hardAlpha"/>
<feOffset dy="4"/>
<feGaussianBlur stdDeviation="2"/>
<feColorMatrix type="matrix" values="0 0 0 0 0 0 0 0 0 0 0 0 0 0 0 0 0 0 0.25 0"/>
<feBlend mode="normal" in2="BackgroundImageFix" result="effect1_dropShadow_1574_1689"/>
<feBlend mode="normal" in="SourceGraphic" in2="effect1_dropShadow_1574_1689" result="shape"/>
</filter>
</defs>
</svg>
