<svg width="14" height="15" viewBox="0 0 14 15" fill="none" xmlns="http://www.w3.org/2000/svg">
<path d="M12.5014 14.857C12.3743 14.8571 12.2521 14.808 12.1604 14.72L9.01743 11.505C8.06125 12.1981 6.91041 12.5713 5.72943 12.571C4.84792 12.5696 3.97887 12.3628 3.19129 11.9668C2.40372 11.5709 1.71931 10.9967 1.19243 10.29C0.291186 9.0889 -0.122756 7.59153 0.0335819 6.09807C0.18992 4.6046 0.904983 3.22542 2.03543 2.237C3.05955 1.34971 4.3684 0.859957 5.72343 0.857C6.50261 0.85597 7.27342 1.01776 7.98643 1.332C8.72918 1.65854 9.39341 2.14034 9.93443 2.745C10.936 3.86492 11.4772 5.32205 11.4496 6.82424C11.4219 8.32644 10.8275 9.76267 9.78543 10.845L12.8674 13.982V13.999C12.9563 14.0968 13.0046 14.2248 13.0023 14.3569C13.0001 14.489 12.9476 14.6153 12.8554 14.71C12.8093 14.7569 12.7541 14.7941 12.6933 14.8194C12.6325 14.8446 12.5673 14.8574 12.5014 14.857ZM5.75943 1.969C4.50702 1.98482 3.31203 2.49674 2.43655 3.39246C1.56108 4.28817 1.07662 5.49456 1.08943 6.747C1.07662 7.99944 1.56108 9.20582 2.43655 10.1015C3.31203 10.9973 4.50702 11.5092 5.75943 11.525C7.01166 11.5089 8.2064 10.9969 9.08165 10.1012C9.95691 9.2055 10.4412 7.99927 10.4284 6.747C10.4412 5.49473 9.95691 4.28849 9.08165 3.3928C8.2064 2.49711 7.01166 1.98508 5.75943 1.969Z" fill="#5A6276"/>
</svg>
