<svg width="17" height="17" viewBox="0 0 17 17" fill="none" xmlns="http://www.w3.org/2000/svg">
<path d="M13.5002 17H3.11521C2.80702 16.9971 2.51256 16.8721 2.29641 16.6524C2.08027 16.4327 1.96008 16.1362 1.96221 15.828V3.71599H1.57721C1.42179 3.71599 1.27274 3.65425 1.16285 3.54435C1.05295 3.43446 0.991211 3.2854 0.991211 3.12999C0.991211 2.97457 1.05295 2.82552 1.16285 2.71562C1.27274 2.60573 1.42179 2.54399 1.57721 2.54399H4.87721C5.15314 1.799 5.64952 1.15577 6.30021 0.699988C6.9443 0.246773 7.71265 0.00354004 8.50021 0.00354004C9.28778 0.00354004 10.0561 0.246773 10.7002 0.699988C11.3505 1.15655 11.8462 1.8005 12.1212 2.54599H15.4212C15.5766 2.54599 15.7257 2.60773 15.8356 2.71762C15.9455 2.82752 16.0072 2.97657 16.0072 3.13199C16.0072 3.2874 15.9455 3.43646 15.8356 3.54635C15.7257 3.65625 15.5766 3.71799 15.4212 3.71799H14.6512V15.828C14.6533 16.1358 14.5334 16.432 14.3177 16.6517C14.102 16.8713 13.8081 16.9966 13.5002 17ZM11.3852 8.59999C11.5394 8.60131 11.6868 8.66376 11.7949 8.77363C11.9031 8.8835 11.9633 9.0318 11.9622 9.18599V15.828H13.5002V3.71599H3.11521V15.828H4.65421V9.18599C4.65421 9.11022 4.66914 9.03518 4.69813 8.96518C4.72713 8.89517 4.76963 8.83157 4.82321 8.77799C4.87679 8.72441 4.9404 8.68191 5.0104 8.65291C5.08041 8.62391 5.15544 8.60899 5.23121 8.60899C5.30698 8.60899 5.38201 8.62391 5.45202 8.65291C5.52202 8.68191 5.58563 8.72441 5.63921 8.77799C5.69279 8.83157 5.73529 8.89517 5.76429 8.96518C5.79329 9.03518 5.80821 9.11022 5.80821 9.18599V15.828H7.73121V6.84099C7.73121 6.68796 7.792 6.5412 7.90021 6.43299C8.00842 6.32478 8.15518 6.26399 8.30821 6.26399C8.46124 6.26399 8.608 6.32478 8.71621 6.43299C8.82442 6.5412 8.88521 6.68796 8.88521 6.84099V15.827H10.8082V9.18599C10.8071 9.0318 10.8673 8.8835 10.9755 8.77363C11.0837 8.66376 11.231 8.60131 11.3852 8.59999ZM8.50021 1.17599C8.0069 1.13175 7.51182 1.23899 7.08104 1.48342C6.65026 1.72784 6.30426 2.09782 6.08921 2.54399H10.9112C10.6922 2.10103 10.3454 1.73391 9.91561 1.49006C9.48583 1.2462 8.9928 1.1368 8.50021 1.17599Z" fill="white"/>
</svg>
