<svg width="17" height="20" viewBox="0 0 17 20" fill="none" xmlns="http://www.w3.org/2000/svg">
<path d="M13.8 7.01709H10.973V8.70409H13.8C14.636 8.70409 15.3 9.12609 15.3 9.51309V17.0001C15.3 17.3871 14.638 17.8091 13.8 17.8091H3.17C2.334 17.8091 1.67 17.3871 1.67 17.0001V9.51709C1.67 9.13009 2.332 8.70809 3.17 8.70809H5.992V7.01709H3.17C1.393 7.01709 0 8.10709 0 9.51709V17.0041C0 18.4101 1.393 19.5041 3.17 19.5041H13.83C15.607 19.5041 17 18.4141 17 17.0041V9.51709C16.965 8.11109 15.572 7.01709 13.8 7.01709Z" fill="#959DB3"/>
<path d="M6.004 4.7142C6.11546 4.71596 6.22611 4.69507 6.32925 4.65278C6.43239 4.6105 6.52586 4.5477 6.604 4.4682L7.659 3.4132V11.9902C7.6551 12.1034 7.67404 12.2162 7.71467 12.322C7.7553 12.4277 7.81681 12.5242 7.89552 12.6057C7.97423 12.6872 8.06854 12.7519 8.17282 12.7962C8.2771 12.8404 8.38922 12.8632 8.5025 12.8632C8.61578 12.8632 8.7279 12.8404 8.83218 12.7962C8.93646 12.7519 9.03077 12.6872 9.10948 12.6057C9.18819 12.5242 9.2497 12.4277 9.29033 12.322C9.33097 12.2162 9.3499 12.1034 9.346 11.9902V3.3432L10.471 4.4682C10.6302 4.62721 10.846 4.71653 11.071 4.71653C11.296 4.71653 11.5118 4.62721 11.671 4.4682C11.8248 4.30631 11.9106 4.09152 11.9106 3.8682C11.9106 3.64487 11.8248 3.43008 11.671 3.2682L9.132 0.742197C9.05386 0.662697 8.96039 0.599898 8.85725 0.557611C8.75411 0.515325 8.64346 0.494431 8.532 0.496197V0.496197C8.42054 0.494431 8.30989 0.515325 8.20675 0.557611C8.10361 0.599898 8.01014 0.662697 7.932 0.742197L5.406 3.2732C5.25216 3.43508 5.16638 3.64987 5.16638 3.8732C5.16638 4.09652 5.25216 4.31131 5.406 4.4732C5.56551 4.63145 5.78131 4.71993 6.006 4.7192L6.004 4.7142Z" fill="#959DB3"/>
</svg>
