<svg width="22" height="20" viewBox="0 0 22 20" fill="none" xmlns="http://www.w3.org/2000/svg">
<path d="M10.9078 13.854C10.5886 13.8631 10.2855 13.9963 10.0629 14.2254C9.84032 14.4544 9.71582 14.7611 9.71582 15.0805C9.71582 15.3999 9.84032 15.7066 10.0629 15.9357C10.2855 16.1647 10.5886 16.2979 10.9078 16.307C11.227 16.2979 11.5301 16.1647 11.7527 15.9357C11.9753 15.7066 12.0998 15.3999 12.0998 15.0805C12.0998 14.7611 11.9753 14.4544 11.7527 14.2254C11.5301 13.9963 11.227 13.8631 10.9078 13.854Z" fill="#FD7676"/>
<path d="M21.2748 17.983C21.6204 17.3969 21.8036 16.7293 21.8055 16.049C21.8075 15.3686 21.6281 14.7 21.2858 14.112L14.2658 1.96198C13.9281 1.37023 13.44 0.87823 12.851 0.535822C12.262 0.193414 11.5929 0.0127566 10.9116 0.0121475C10.2302 0.0115385 9.56084 0.191 8.97119 0.532354C8.38154 0.873708 7.89257 1.36483 7.55382 1.95598L0.521818 14.123C0.181799 14.7127 0.00300947 15.3816 0.00341867 16.0623C0.00382787 16.743 0.183422 17.4117 0.524149 18.001C0.864876 18.5903 1.35473 19.0796 1.94448 19.4196C2.53422 19.7596 3.20308 19.9384 3.88382 19.938H17.9018C18.5871 19.9417 19.2611 19.7625 19.854 19.4188C20.4469 19.0752 20.9374 18.5795 21.2748 17.983ZM19.7508 17.112C19.5649 17.438 19.2958 17.7089 18.9709 17.8969C18.6461 18.0849 18.2771 18.1833 17.9018 18.182H3.87782C3.50779 18.1841 3.14381 18.088 2.82303 17.9036C2.50224 17.7191 2.23612 17.4529 2.05182 17.132C1.861 16.8079 1.75988 16.4389 1.75882 16.0628C1.75777 15.6867 1.85682 15.3171 2.04582 14.992L9.07182 2.82998C9.25616 2.50675 9.52274 2.23805 9.84449 2.05115C10.1662 1.86425 10.5317 1.7658 10.9038 1.7658C11.2759 1.7658 11.6414 1.86425 11.9631 2.05115C12.2849 2.23805 12.5515 2.50675 12.7358 2.82998L19.7628 14.992C19.9497 15.314 20.0473 15.6801 20.0453 16.0525C20.0434 16.4248 19.9421 16.7899 19.7518 17.11L19.7508 17.112Z" fill="#FD7676"/>
<path d="M10.5997 5.33803C10.3161 5.42421 10.0693 5.60245 9.89837 5.84459C9.7274 6.08673 9.64203 6.37894 9.65572 6.67503C9.68672 7.06103 9.71072 7.45403 9.74172 7.84003C9.82772 9.31803 9.90773 10.765 9.99273 12.24C10.0019 12.4761 10.1034 12.6991 10.2756 12.861C10.4477 13.0228 10.6765 13.1105 10.9127 13.105C11.1535 13.1059 11.385 13.0119 11.5571 12.8435C11.7293 12.6751 11.8283 12.4458 11.8327 12.205C11.8277 11.9047 11.838 11.6043 11.8637 11.305C11.9187 10.361 11.9737 9.40503 12.0297 8.46503C12.0607 7.85203 12.1157 7.23803 12.1397 6.62503C12.1442 6.41542 12.1068 6.20702 12.0297 6.01202C11.9085 5.7493 11.6995 5.537 11.4387 5.41163C11.1779 5.28626 10.8816 5.25564 10.6007 5.32503L10.5997 5.33803Z" fill="#FD7676"/>
</svg>
