<svg width="21" height="20" viewBox="0 0 21 20" fill="none" xmlns="http://www.w3.org/2000/svg">
<path d="M19.1175 11.4122H1.71748L0.41748 9.56624L2.15648 7.71924H18.6785L20.4175 9.56624L19.1175 11.4122Z" fill="#0E512B"/>
<path d="M17.7134 20H3.12243C3.00896 19.9992 2.89677 19.9761 2.79224 19.9319C2.68772 19.8878 2.59291 19.8235 2.51324 19.7427C2.43356 19.6619 2.37058 19.5662 2.32789 19.4611C2.2852 19.356 2.26363 19.2435 2.26443 19.13V0.87C2.26363 0.756537 2.2852 0.64403 2.32789 0.538902C2.37058 0.433774 2.43356 0.338084 2.51324 0.257296C2.59291 0.176509 2.68772 0.112206 2.79224 0.0680586C2.89677 0.0239116 3.00896 0.000785201 3.12243 0H13.4224L18.5724 5.217V19.13C18.5732 19.2435 18.5516 19.3561 18.5089 19.4613C18.4661 19.5665 18.403 19.6623 18.3233 19.7431C18.2435 19.8239 18.1486 19.8881 18.0439 19.9322C17.9393 19.9763 17.827 19.9993 17.7134 20Z" fill="#E6E6E6"/>
<path d="M13.0314 0V4.616C13.0314 4.8608 13.1286 5.09556 13.3017 5.26866C13.4748 5.44176 13.7096 5.539 13.9544 5.539H18.5714L13.0314 0Z" fill="#B3B3B3"/>
<path d="M19.5474 17.2299H1.28742C1.04993 17.2221 0.825178 17.1206 0.662193 16.9477C0.499208 16.7748 0.411219 16.5444 0.417421 16.3069V8.9209H20.4174V16.3069C20.4236 16.5444 20.3356 16.7748 20.1726 16.9477C20.0097 17.1206 19.7849 17.2221 19.5474 17.2299Z" fill="#1B7343"/>
<path d="M7.79446 15.2778H6.66146L5.95646 14.1448L5.25646 15.2778H4.14746L5.34746 13.4228L4.21646 11.6528H5.30246L5.95746 12.7738L6.58746 11.6528H7.70546L6.55646 13.4998L7.79446 15.2778Z" fill="white"/>
<path d="M7.95544 15.2778V11.6528H8.93544V14.4868H10.3354V15.2778H7.95544Z" fill="white"/>
<path d="M13.0925 14.1762C13.0963 14.3887 13.0368 14.5976 12.9215 14.7762C12.8002 14.9568 12.6289 15.0983 12.4285 15.1832C12.1896 15.2847 11.9319 15.3341 11.6725 15.3282C11.4686 15.3314 11.2649 15.3143 11.0645 15.2772C10.8876 15.2391 10.716 15.1797 10.5535 15.1002V14.2252C10.7392 14.3206 10.9346 14.3957 11.1365 14.4492C11.3172 14.4996 11.5038 14.5265 11.6915 14.5292C11.8033 14.538 11.9152 14.5117 12.0115 14.4542C12.0429 14.4324 12.0685 14.4032 12.0859 14.3692C12.1034 14.3352 12.1122 14.2974 12.1115 14.2592C12.112 14.2126 12.0977 14.167 12.0705 14.1292C12.0337 14.0838 11.9889 14.0455 11.9385 14.0162C11.8785 13.9782 11.7175 13.9002 11.4565 13.7832C11.2658 13.7033 11.0869 13.598 10.9245 13.4702C10.8113 13.3762 10.7213 13.2575 10.6615 13.1232C10.6011 12.9764 10.5718 12.8188 10.5755 12.6602C10.5686 12.5102 10.5982 12.3607 10.6618 12.2247C10.7253 12.0887 10.821 11.9701 10.9405 11.8792C11.2337 11.6779 11.5853 11.5794 11.9405 11.5992C12.3372 11.604 12.7284 11.6926 13.0885 11.8592L12.7885 12.6152C12.5154 12.4766 12.2163 12.3972 11.9105 12.3822C11.813 12.3742 11.7156 12.3977 11.6325 12.4492C11.6055 12.4676 11.5835 12.4924 11.5683 12.5213C11.5532 12.5503 11.5453 12.5825 11.5455 12.6152C11.5473 12.6535 11.5582 12.6908 11.5774 12.724C11.5965 12.7572 11.6233 12.7854 11.6555 12.8062C11.8468 12.9246 12.0475 13.0273 12.2555 13.1132C12.5057 13.2091 12.7291 13.3642 12.9065 13.5652C13.0345 13.7426 13.0999 13.9575 13.0925 14.1762Z" fill="white"/>
<path d="M16.6825 15.2778H15.5495L14.8385 14.1448L14.1385 15.2778H13.0385L14.2385 13.4228L13.1075 11.6528H14.1935L14.8485 12.7738L15.4785 11.6528H16.5965L15.4485 13.4998L16.6825 15.2778Z" fill="white"/>
</svg>
