<svg width="13" height="9" viewBox="0 0 13 9" fill="none" xmlns="http://www.w3.org/2000/svg">
<path d="M6.01636 7.91205C6.06167 7.94674 6.10984 7.97752 6.16036 8.00405C6.21546 8.0475 6.27475 8.08535 6.33736 8.11705C6.40245 8.1377 6.46945 8.15177 6.53735 8.15905C6.66559 8.20154 6.80411 8.20154 6.93235 8.15905C7.00026 8.15177 7.06726 8.1377 7.13235 8.11705C7.19461 8.08529 7.25356 8.04744 7.30835 8.00405C7.36025 7.97772 7.40977 7.94694 7.45635 7.91205L12.7393 2.27105C12.9195 2.06443 13.0125 1.7959 12.9986 1.52207C12.9848 1.24824 12.8651 0.990493 12.6649 0.803142C12.4648 0.61579 12.1997 0.513471 11.9255 0.517745C11.6514 0.522019 11.3896 0.632554 11.1953 0.826055L6.67535 5.64205L2.15537 0.826055C1.96113 0.632554 1.69934 0.522019 1.4252 0.517745C1.15105 0.513471 0.885951 0.61579 0.685764 0.803142C0.485579 0.990493 0.36594 1.24824 0.352065 1.52207C0.338189 1.7959 0.43116 2.06443 0.611382 2.27105L6.01636 7.91205Z" fill="#959DB3"/>
</svg>
